<?xml version="1.0" encoding="UTF-8" standalone="no" ?>
<!DOCTYPE svg PUBLIC "-//W3C//DTD SVG 1.1//EN" "http://www.w3.org/Graphics/SVG/1.1/DTD/svg11.dtd">
<svg xmlns="http://www.w3.org/2000/svg" xmlns:xlink="http://www.w3.org/1999/xlink" version="1.1" width="50" height="50" viewBox="0 0 50 50" xml:space="preserve">
<desc>Created with Fabric.js 5.2.4</desc>
<defs>
</defs>
<g transform="matrix(1 0 0 1 25 25)" id="6b07eeb2-367c-47c3-91f7-1ab2463f12ee"  >
<rect style="stroke: none; stroke-width: 1; stroke-dasharray: none; stroke-linecap: butt; stroke-dashoffset: 0; stroke-linejoin: miter; stroke-miterlimit: 4; fill: rgb(255,255,255); fill-rule: nonzero; opacity: 1;" vector-effect="non-scaling-stroke"  x="-25" y="-25" rx="0" ry="0" width="50" height="50" />
</g>
<g transform="matrix(Infinity NaN NaN Infinity 0 0)" id="18e71aa2-c237-47ea-8d9a-faba2534bc80"  >
</g>
<g transform="matrix(0.05 0 0 0.05 25 25)"  >
<g style="" vector-effect="non-scaling-stroke"   >
		<g transform="matrix(33.33 0 0 33.33 -183.33 -33.33)"  >
<path style="stroke: none; stroke-width: 1; stroke-dasharray: none; stroke-linecap: butt; stroke-dashoffset: 0; stroke-linejoin: miter; stroke-miterlimit: 4; fill: rgb(28,39,76); fill-rule: nonzero; opacity: 1;" vector-effect="non-scaling-stroke"  transform=" translate(-6.5, -11)" d="M 9.5 19.75 C 9.91421 19.75 10.25 19.4142 10.25 19 C 10.25 18.5858 9.91421 18.25 9.5 18.25 L 9.5 19.75 Z M 11 5 L 11 5.75 C 11.3033 5.75 11.5768 5.56727 11.6929 5.28701 C 11.809 5.00676 11.7448 4.68417 11.5303 4.46967 L 11 5 Z M 9.53033 2.46967 C 9.23744 2.17678 8.76256 2.17678 8.46967 2.46967 C 8.17678 2.76256 8.17678 3.23744 8.46967 3.53033 L 9.53033 2.46967 Z M 1.25 12 C 1.25 12.4142 1.58579 12.75 2 12.75 C 2.41421 12.75 2.75 12.4142 2.75 12 L 1.25 12 Z M 3.86991 15.5709 C 3.63293 15.2312 3.16541 15.1479 2.82569 15.3849 C 2.48596 15.6219 2.40267 16.0894 2.63965 16.4291 L 3.86991 15.5709 Z M 9.5 18.25 L 9.00028 18.25 L 9.00028 19.75 L 9.5 19.75 L 9.5 18.25 Z M 9 5.75 L 11 5.75 L 11 4.25 L 9 4.25 L 9 5.75 Z M 11.5303 4.46967 L 9.53033 2.46967 L 8.46967 3.53033 L 10.4697 5.53033 L 11.5303 4.46967 Z M 2.75 12 C 2.75 8.54822 5.54822 5.75 9 5.75 L 9 4.25 C 4.71979 4.25 1.25 7.71979 1.25 12 L 2.75 12 Z M 2.63965 16.4291 C 4.03893 18.435 6.36604 19.75 9.00028 19.75 L 9.00028 18.25 C 6.87703 18.25 5.00068 17.1919 3.86991 15.5709 L 2.63965 16.4291 Z" stroke-linecap="round" />
</g>
		<g transform="matrix(33.33 0 0 33.33 183.33 33.33)"  >
<path style="stroke: none; stroke-width: 1; stroke-dasharray: none; stroke-linecap: butt; stroke-dashoffset: 0; stroke-linejoin: miter; stroke-miterlimit: 4; fill: rgb(28,39,76); fill-rule: nonzero; opacity: 1;" vector-effect="non-scaling-stroke"  transform=" translate(-17.5, -13)" d="M 13 19 L 13 18.25 C 12.6967 18.25 12.4232 18.4327 12.3071 18.713 C 12.191 18.9932 12.2552 19.3158 12.4697 19.5303 L 13 19 Z M 14.4697 21.5303 C 14.7626 21.8232 15.2374 21.8232 15.5303 21.5303 C 15.8232 21.2374 15.8232 20.7626 15.5303 20.4697 L 14.4697 21.5303 Z M 14.5 4.25 C 14.0858 4.25 13.75 4.58579 13.75 5 C 13.75 5.41421 14.0858 5.75 14.5 5.75 L 14.5 4.25 Z M 22.75 12 C 22.75 11.5858 22.4142 11.25 22 11.25 C 21.5858 11.25 21.25 11.5858 21.25 12 L 22.75 12 Z M 20.1302 8.42907 C 20.3671 8.76881 20.8347 8.85211 21.1744 8.61514 C 21.5141 8.37817 21.5974 7.91066 21.3604 7.57093 L 20.1302 8.42907 Z M 15 18.25 L 13 18.25 L 13 19.75 L 15 19.75 L 15 18.25 Z M 12.4697 19.5303 L 14.4697 21.5303 L 15.5303 20.4697 L 13.5303 18.4697 L 12.4697 19.5303 Z M 14.5 5.75 L 15 5.75 L 15 4.25 L 14.5 4.25 L 14.5 5.75 Z M 21.25 12 C 21.25 15.4518 18.4518 18.25 15 18.25 L 15 19.75 C 19.2802 19.75 22.75 16.2802 22.75 12 L 21.25 12 Z M 21.3604 7.57093 C 19.9613 5.56497 17.6342 4.25 15 4.25 L 15 5.75 C 17.1232 5.75 18.9995 6.80806 20.1302 8.42907 L 21.3604 7.57093 Z" stroke-linecap="round" />
</g>
</g>
</g>
</svg>