<?xml version="1.0" encoding="utf-8"?><!-- Uploaded to: SVG Repo, www.svgrepo.com, Generator: SVG Repo Mixer Tools -->
<svg fill="#000000" width="800px" height="800px" viewBox="0 0 24 24" id="music-lyric-2" data-name="Flat Color" xmlns="http://www.w3.org/2000/svg" class="icon flat-color"><path id="primary" d="M12,13a2,2,0,0,1,2-2h2a1,1,0,0,0,1-1V4a2,2,0,0,0-2-2H4A2,2,0,0,0,2,4V18a2,2,0,0,0,2,2h7a1,1,0,0,0,1-1Z" style="fill: rgb(0, 0, 0);"></path><path id="secondary" d="M22,16a1,1,0,0,1-2,0,2,2,0,0,0-1-1.78V19a3,3,0,1,1-2-2.82V13a1,1,0,0,1,1-1A3.91,3.91,0,0,1,22,16ZM10,11a1,1,0,0,0-1-1H5a1,1,0,0,0,0,2H9A1,1,0,0,0,10,11ZM9,15a1,1,0,0,0-1-1H5a1,1,0,0,0,0,2H8A1,1,0,0,0,9,15Z" style="fill: rgb(44, 169, 188);"></path></svg>